<svg width="300" height="202" version="1.1" viewBox="0 0 176 115" xmlns="http://www.w3.org/2000/svg" xmlns:xlink="http://www.w3.org/1999/xlink">
<desc>Created with Sketch.</desc>
<defs>
<polygon id="a" points="3.7376e-4 0.33279 175.55 0.33279 175.55 114.41 3.7376e-4 114.41"/>
</defs>
<g fill="none" fill-rule="evenodd">
<g transform="translate(-692 -260)">
<g transform="translate(692 260)">
<path d="m39.583 113.28c-10.341 0-20.044-4.0374-27.319-11.367-7.0973-7.1501-10.957-16.574-10.868-26.534 0.15651-17.688 12.884-33.033 30.262-36.486 1.206-0.24003 2.1516-1.1412 2.4079-2.2971 2.6672-11.994 13.535-20.699 25.843-20.699 4.3539 0 8.6772 1.0952 12.504 3.1669 0.47839 0.25831 0.98985 0.38982 1.522 0.38923 1.0755 0 2.0689-0.5461 2.6559-1.4614 6.4334-10.023 17.385-16.007 29.295-16.007 18.497 0 33.773 14.438 34.778 32.868 0.008859 0.15982 0.014174 0.48241 0.015355 0.89464 5.91e-4 1.5003 1.0448 2.7742 2.4829 3.0301 18.115 3.2283 31.148 18.902 30.99 37.268-0.17659 20.531-17.305 37.235-38.182 37.235h-96.387z" fill="#3BB878"/>
<g transform="translate(0 .25713)">
<mask id="b" fill="white">
<use xlink:href="#a"/>
</mask>
<path d="m105.88 0.33279c-12.387 0-23.777 6.2236-30.467 16.648-0.33015 0.51426-0.88472 0.82092-1.4836 0.82092-0.29766 0-0.58588-0.074308-0.85756-0.22115-4.0297-2.1826-8.5832-3.3362-13.168-3.3362-6.3703 0-12.603 2.2115-17.55 6.2259-4.8731 3.9554-8.3009 9.4825-9.6528 15.563-0.13761 0.61805-0.65616 1.1022-1.3206 1.2343-18.021 3.5815-31.22 19.495-31.383 37.839-0.092725 10.335 3.911 20.11 11.272 27.526 7.5385 7.5953 17.592 11.778 28.308 11.778h96.387c21.639 0 39.392-17.323 39.575-38.613 0.079731-9.2531-3.1615-18.25-9.1278-25.335-5.886-6.9908-14.058-11.719-23.011-13.315-0.7607-0.13505-1.3342-0.84923-1.3348-1.6601-5.91e-4 -0.67644-0.012993-0.89759-0.017127-0.97072-1.0448-19.168-16.933-34.184-36.169-34.184m0 2.7824c17.82 0 32.429 13.993 33.387 31.553 0.008268 0.14685 0.012403 0.4429 0.012993 0.82092 0.001181 2.1437 1.5184 4.0215 3.6316 4.3977 17.038 3.036 29.996 17.978 29.842 35.886-0.17187 19.946-16.813 35.855-36.789 35.855h-96.387c-20.226 0-36.974-16.302-36.795-36.497 0.15474-17.379 12.65-31.857 29.141-35.134 1.724-0.34264 3.116-1.6472 3.4964-3.3604 2.4918-11.205 12.523-19.609 24.483-19.609 4.263 0 8.2927 1.0781 11.84 2.9988 0.6975 0.37744 1.447 0.5579 2.1858 0.5579 1.5031 0 2.9595-0.74662 3.8295-2.1024 5.9497-9.2696 16.344-15.366 28.122-15.366" fill="#3BB878" mask="url(#b)"/>
</g>
<path d="m63.38 62.238c-4.6859-8.428-13.243-13.762-22.889-14.269l-2.2756-0.11972-0.33428-2.2511c-0.18013-1.2155-0.264-2.2558-0.264-3.2719 0-12.274 10-22.259 22.291-22.259 9.279 0 17.438 5.5949 20.784 14.255l0.21439 0.55318-0.030711 0.5921c-0.0094497 0.17103-0.020081 0.34087-0.031893 0.51072-0.017718 0.25949-0.037208 0.51897-0.037208 0.78318 0 2.4698 0.36617 4.9238 1.0885 7.2934l0.17541 0.575-0.07796 0.59564c-1.1151 8.5247-7.1327 15.714-15.333 18.314l-2.1728 0.68941-1.1068-1.9904z" fill="#5CC38E"/>
<path d="m59.908 17.284c-13.828 0-25.078 11.233-25.078 25.041 0 1.1541 0.093315 2.323 0.29412 3.6788l0.66679 4.5033 4.553 0.23944c8.6819 0.45646 16.383 5.257 20.6 12.842l2.2136 3.9808 4.3457-1.3782c9.2258-2.9257 15.998-11.015 17.252-20.606l0.15592-1.1907-0.35023-1.1488c-0.64199-2.1083-0.96741-4.2904-0.96741-6.4848 0-0.13741 0.014765-0.35738 0.030121-0.58974 0.012993-0.18754 0.025396-0.37508 0.035436-0.56321l0.060242-1.183-0.42701-1.1046c-1.8043-4.6666-4.9304-8.6527-9.0404-11.527-4.2187-2.9499-9.1792-4.5092-14.343-4.5092m0 5.5648c8.2974 0 15.366 5.1821 18.185 12.474-0.024805 0.47946-0.072644 0.95244-0.072644 1.4372 0 2.8202 0.4276 5.5389 1.209 8.1043-0.98926 7.567-6.3118 13.771-13.413 16.023-4.9812-8.9588-14.333-15.127-25.179-15.698-0.13879-0.9371-0.23388-1.8884-0.23388-2.8644 0-10.756 8.7327-19.476 19.505-19.476" fill="#3BB878"/>
<path d="m107.41 64.826c-5.8777-3.7985-12.668-5.8066-19.639-5.8066-0.29294 0-0.57997 0.021231-0.86819 0.041282-0.23447 0.015923-0.47012 0.031256-0.70577 0.041282l-1.2326 0.053077-0.86819-0.87636c-3.4911-3.5237-6.0962-7.8825-7.5343-12.605-0.88295-2.8951-1.3294-5.8939-1.3294-8.9134 0-0.39041 0.023624-0.77433 0.049611-1.1583 0.0094496-0.14036 0.01949-0.28131 0.025987-0.42285 0.8357-16.275 14.265-29.025 30.575-29.025 16.901 0 30.651 13.73 30.651 30.606 0 3.2229-0.51619 6.4294-1.5344 9.5314l-0.54276 1.6542-1.7275 0.2359c-9.2678 1.2662-17.228 7.0657-21.294 15.514l-1.3696 2.8467-2.6554-1.7162z" fill="#5CC38E"/>
<path d="m105.88 3.3722c-17.794 0-32.447 13.91-33.357 31.667-0.0064967 0.12797-0.015946 0.25418-0.024215 0.38097-0.024805 0.36859-0.056107 0.82741-0.056107 1.3405 0 3.2925 0.48784 6.5638 1.4499 9.7231 1.5692 5.1526 4.4124 9.9083 8.2206 13.753l1.7352 1.7521 2.4658-0.10615c0.25928-0.011205 0.51678-0.027718 0.77428-0.04541 0.26341-0.018282 0.51264-0.034795 0.67979-0.034795 6.4323 0 12.699 1.8536 18.124 5.3602l5.3107 3.4323 2.7398-5.6934c3.6606-7.6036 10.823-12.823 19.161-13.962l3.4539-0.47238 1.0861-3.3079c1.1103-3.3828 1.6732-6.8811 1.6732-10.398 0-18.411-15-33.388-33.437-33.388m0 5.5648c15.389 0 27.864 12.457 27.864 27.824 0 3.0283-0.50024 5.9364-1.3962 8.6651-10.366 1.416-19.061 7.9916-23.427 17.065-6.0974-3.9407-13.349-6.2531-21.152-6.2531-0.5717 0-1.1275 0.061333-1.6933 0.085513-3.1391-3.1687-5.518-7.0846-6.8504-11.459-0.78137-2.5648-1.209-5.2835-1.209-8.1037 0-0.48536 0.047839-0.95774 0.072644-1.4372 0.7542-14.694 12.889-26.386 27.792-26.386" fill="#3BB878"/>
<path d="m39.01 109.1c-18.437 0-33.437-14.978-33.437-33.388s15-33.389 33.437-33.389c0.46835 0 0.90953 0.029487 1.2987 0.056026 0.15828 0.010615 0.31597 0.021231 0.47544 0.030077 11.576 0.60862 21.845 7.0103 27.469 17.125 0.29353 0.52782 0.5404 1.0438 0.7796 1.5428l1.1617 2.4156-2.06 1.3316c-10.385 6.7125-16.586 18.064-16.586 30.364 0 2.7441 0.35023 5.5914 1.0412 8.4628l0.57289 2.3808-2.2927 0.86928c-3.8466 1.4596-7.8367 2.1992-11.86 2.1992" fill="#5CC38E"/>
<path d="m39.01 39.543c-19.974 0-36.224 16.226-36.224 36.171 0 19.945 16.25 36.171 36.224 36.171 4.364 0 8.6866-0.80146 12.85-2.3808l4.5843-1.7397-1.1452-4.7616c-0.63903-2.658-0.96328-5.2865-0.96328-7.8123 0-11.353 5.7247-21.832 15.313-28.028l4.1206-2.6639-2.1256-4.4178-0.098631-0.20523c-0.24451-0.51013-0.52209-1.0893-0.85579-1.689-6.0927-10.959-17.217-17.895-29.759-18.554-0.1447-0.0076666-0.28881-0.017692-0.4335-0.027718-0.4335-0.028898-0.9243-0.061923-1.4871-0.061923m0 5.5648c0.54985 0 1.0855 0.053077 1.6277 0.081974 10.846 0.57028 20.198 6.7384 25.179 15.697 0.28999 0.52192 0.54395 1.0639 0.80322 1.6035-10.736 6.9389-17.857 18.979-17.857 32.7 0 3.1433 0.41283 6.1841 1.1168 9.1121-3.3824 1.2833-7.0365 2.0175-10.87 2.0175-16.928 0-30.651-13.703-30.651-30.607 0-16.903 13.723-30.606 30.651-30.606" fill="#3BB878"/>
<path d="m136.54 109.1c-4.0232 0-8.0133-0.73954-11.86-2.1992l-2.2927-0.86928 0.57288-2.3808c0.69101-2.8715 1.0412-5.7187 1.0412-8.4628 0-12.3-6.2008-23.652-16.586-30.364l-2.0606-1.3322 1.0637-2.2092c4.8784-10.137 14.434-17.096 25.561-18.616 1.7145-0.23472 3.1639-0.34382 4.5606-0.34382 18.437 0 33.437 14.978 33.437 33.389s-15 33.388-33.437 33.388" fill="#5CC38E"/>
<path d="m136.54 39.543c-1.5261 0-3.0948 0.11736-4.938 0.36859-12.056 1.6472-22.41 9.187-27.695 20.169l-2.1262 4.4178 4.1206 2.6645c9.5885 6.1964 15.313 16.675 15.313 28.028 0 2.5259-0.32424 5.1544-0.96328 7.8129l-1.1452 4.7616 4.5843 1.7392c4.1632 1.5793 8.4858 2.3808 12.85 2.3808 19.974 0 36.224-16.226 36.224-36.171 0-19.945-16.25-36.171-36.224-36.171m0 5.5648c16.928 0 30.651 13.703 30.651 30.606 0 16.904-13.723 30.607-30.651 30.607-3.8336 0-7.4877-0.73423-10.87-2.0175 0.704-2.9281 1.1168-5.9688 1.1168-9.1121 0-13.722-7.1209-25.761-17.857-32.7 4.3669-9.0732 13.061-15.649 23.427-17.065 1.3708-0.18754 2.7599-0.31787 4.1827-0.31787" fill="#3BB878"/>
<path d="m48.322 109.1l-0.59297-1.9874c-0.20376-0.68174-0.36381-1.3511-0.51914-1.9992l-0.03957-0.16395c-0.79259-3.2955-1.1948-6.5798-1.1948-9.7614 0-14.196 7.1516-27.293 19.13-35.036 6.1978-4.0055 13.408-6.2914 20.854-6.6116 0.19017-0.0082564 0.37917-0.021231 0.56757-0.034205 0.37208-0.025359 0.79495-0.053667 1.2456-0.053667 8.047 0 15.885 2.3165 22.667 6.6995 11.979 7.7427 19.13 20.84 19.13 35.036 0 3.1817-0.40161 6.4659-1.1942 9.762l-0.039571 0.16336c-0.15533 0.64813-0.31597 1.3175-0.51914 1.9992l-0.59297 1.9874h-78.901z" fill="#5CC38E"/>
<path d="m87.773 50.673c-0.54572 0-1.0395 0.033615-1.4358 0.060744-0.16537 0.011205-0.33015 0.023-0.4967 0.030077-7.9419 0.34087-15.634 2.7812-22.248 7.0557-12.775 8.257-20.402 22.228-20.402 37.371 0 3.4005 0.4276 6.9035 1.2716 10.412l0.040161 0.16926c0.16419 0.68115 0.3331 1.3853 0.55694 2.1366l1.1859 3.9766h4.1555 74.746 4.1555l1.1859-3.9766c0.22384-0.75074 0.39275-1.4549 0.55694-2.1355l0.040161-0.17044c0.84397-3.509 1.2716-7.0115 1.2716-10.412 0-15.143-7.6271-29.114-20.402-37.371-7.2331-4.6755-15.595-7.1465-24.181-7.1465m0 5.5648c7.8037 0 15.055 2.3124 21.152 6.2531 10.736 6.9395 17.858 18.979 17.858 32.7 0 3.1433-0.41283 6.1846-1.1174 9.1121-0.16242 0.67703-0.32188 1.3546-0.51973 2.0175h-74.746c-0.19785-0.66287-0.35732-1.3405-0.51973-2.0175-0.70459-2.9275-1.1174-5.9688-1.1174-9.1121 0-13.721 7.1215-25.761 17.858-32.7 5.6503-3.6517 12.303-5.8603 19.459-6.1675 0.5658-0.02418 1.1216-0.085513 1.6933-0.085513" fill="#3BB878"/>
<path d="m83.129 80.352c0 3.4146-2.7723 6.1829-6.1919 6.1829s-6.1925-2.7683-6.1925-6.1829c0-3.4152 2.7729-6.1829 6.1925-6.1829s6.1919 2.7677 6.1919 6.1829" fill="#3BB878"/>
<path d="m104.8 80.352c0 3.4146-2.7723 6.1829-6.1919 6.1829-3.4196 0-6.1925-2.7683-6.1925-6.1829 0-3.4152 2.7729-6.1829 6.1925-6.1829 3.4196 0 6.1919 2.7677 6.1919 6.1829" fill="#3BB878"/>
<path d="m79.891 92.718c-0.81562 0-1.4127 0.74662-1.2769 1.5493 0.73826 4.3847 4.5583 7.7251 9.1591 7.7251 4.6008 0 8.4208-3.3403 9.1591-7.7251 0.13525-0.80264-0.46185-1.5493-1.2775-1.5493h-15.764z" fill="#3BB878"/>
<path d="m35.361 64.055c0 2.6827-2.1781 4.8577-4.8654 4.8577-2.6867 0-4.8654-2.175-4.8654-4.8577 0-2.6833 2.1787-4.8583 4.8654-4.8583 2.6872 0 4.8654 2.175 4.8654 4.8583" fill="#3BB878"/>
<path d="m52.39 64.055c0 2.6827-2.1781 4.8577-4.8654 4.8577-2.6867 0-4.8654-2.175-4.8654-4.8577 0-2.6833 2.1787-4.8583 4.8654-4.8583 2.6872 0 4.8654 2.175 4.8654 4.8583" fill="#3BB878"/>
<path d="m32.817 73.771c-0.64081 0-1.1097 0.58621-1.0034 1.2172 0.57997 3.4447 3.5814 6.0696 7.1959 6.0696 3.6151 0 6.6159-2.6249 7.1971-6.0696 0.10631-0.63103-0.36263-1.2172-1.0034-1.2172h-12.386z" fill="#3BB878"/>
<path d="m132.89 64.055c0 2.6827-2.1781 4.8577-4.8648 4.8577-2.6872 0-4.866-2.175-4.866-4.8577 0-2.6833 2.1787-4.8583 4.866-4.8583 2.6867 0 4.8648 2.175 4.8648 4.8583" fill="#3BB878"/>
<path d="m149.91 64.055c0 2.6827-2.1781 4.8577-4.8648 4.8577-2.6872 0-4.866-2.175-4.866-4.8577 0-2.6833 2.1787-4.8583 4.866-4.8583 2.6867 0 4.8648 2.175 4.8648 4.8583" fill="#3BB878"/>
<path d="m130.34 73.771c-0.64081 0-1.1097 0.58621-1.0034 1.2172 0.58056 3.4447 3.5814 6.0696 7.1965 6.0696 3.6145 0 6.6159-2.6249 7.1965-6.0696 0.10631-0.63103-0.36263-1.2172-1.0034-1.2172h-12.386z" fill="#3BB878"/>
<path d="m102.57 26.161c0 2.4392-1.9803 4.4166-4.4224 4.4166-2.4427 0-4.4236-1.9774-4.4236-4.4166s1.9809-4.4166 4.4236-4.4166c2.4421 0 4.4224 1.9774 4.4224 4.4166" fill="#3BB878"/>
<path d="m118.05 26.161c0 2.4392-1.9803 4.4166-4.4224 4.4166-2.4433 0-4.4236-1.9774-4.4236-4.4166s1.9803-4.4166 4.4236-4.4166c2.4421 0 4.4224 1.9774 4.4224 4.4166" fill="#3BB878"/>
<path d="m100.25 34.994c-0.58234 0-1.0088 0.53372-0.91189 1.1069 0.52741 3.1315 3.256 5.5176 6.5421 5.5176 3.2867 0 6.0147-2.3861 6.5421-5.5176 0.096268-0.57323-0.32956-1.1069-0.91248-1.1069h-11.26z" fill="#3BB878"/>
<path d="m57.494 33.128c0 1.7073-1.3861 3.0914-3.0959 3.0914-1.7098 0-3.0959-1.3841-3.0959-3.0914 0-1.7079 1.3861-3.0914 3.0959-3.0914 1.7098 0 3.0959 1.3835 3.0959 3.0914" fill="#3BB878"/>
<path d="m68.33 33.128c0 1.7073-1.3861 3.0914-3.0959 3.0914-1.7098 0-3.0959-1.3841-3.0959-3.0914 0-1.7079 1.3861-3.0914 3.0959-3.0914 1.7098 0 3.0959 1.3835 3.0959 3.0914" fill="#3BB878"/>
<path d="m55.875 39.311c-0.40752 0-0.70577 0.37331-0.63844 0.77492 0.36972 2.1921 2.2791 3.8622 4.5795 3.8622s4.2104-1.6702 4.5795-3.8622c0.06792-0.40162-0.23093-0.77492-0.63844-0.77492h-7.8822z" fill="#3BB878"/>
</g>
</g>
</g>
</svg>
