<?xml version="1.0" encoding="utf-8"?>
<!-- Generator: Adobe Illustrator 23.1.1, SVG Export Plug-In . SVG Version: 6.00 Build 0)  -->
<svg version="1.1" id="Layer_1" xmlns="http://www.w3.org/2000/svg" xmlns:xlink="http://www.w3.org/1999/xlink" x="0px" y="0px"
	 viewBox="0 0 145 45" style="enable-background:new 0 0 145 45;" xml:space="preserve">
<style type="text/css">
	.st0{fill:#282425;}
	.st1{fill:#054C17;}
	.st2{fill:#05B65E;}
</style>
<g>
	<path d="M37.9,20C37.9,20,37.9,20,37.9,20l-6.1-3.4l-5.2,3.2L26.6,23l-2.5-1.7l-3.4,2.1c0-1-0.1-2.1-0.1-3.5L17,17.5
		c1-0.5,2.1-1.1,3.3-1.7c0,0,0,0.3-0.5-11.5l-7.9-3.8L1.1,3.8l2.4,11.6l3.6,2.8l-2.8,1.3l1.8,8.8l2.5,2.4l-1.8,1.1l1.4,6.8l5.7,6
		c0,0,0,0,0,0l0,0c0,0,0.6-0.5,7.3-5.8l-0.2-4.6l2.9,2.4c0,0,0,0,0,0l0,0c0,0,0.6-0.5,5.9-4.7l0.2-3.4l2.2,1.5c0,0,0,0,0,0l0,0
		c0,0,0.5-0.4,4.8-3.8L37.9,20L37.9,20z"/>
	<g>
		<g>
			<g>
				<polygon class="st0" points="32.9,23.6 38,20 31.8,16.6 26.7,19.7 				"/>
				<polygon class="st1" points="32.3,30 32.9,23.6 26.7,19.7 26.5,26 				"/>
			</g>
			<g>
				<polygon class="st1" points="24.1,36.6 24,29.9 17.8,25.2 18.2,31.7 				"/>
				<polygon class="st0" points="24,29.9 30.3,25.4 24.1,21.3 17.8,25.2 				"/>
			</g>
			<g>
				<polygon class="st1" points="14,44.6 13,37.8 6.9,31.8 8.3,38.6 				"/>
				<polygon class="st0" points="13,37.8 21,32 14.8,27 6.9,31.8 				"/>
			</g>
			<g>
				<polygon class="st1" points="12.5,34.2 11.2,25.2 4.4,19.5 6.2,28.3 				"/>
				<polygon class="st0" points="11.2,25.2 20.5,19.9 13.5,15.2 4.4,19.5 				"/>
			</g>
			<g>
				<polygon class="st1" points="10.5,20.9 8.7,8.5 1.1,3.8 3.5,15.4 				"/>
				<polygon class="st0" points="8.7,8.5 19.9,4.2 11.9,0.4 1.1,3.8 				"/>
			</g>
			<path class="st2" d="M37.1,26.2C32.4,30,32.3,30,32.3,30c0.6-6.8,0.5-6.5,0.6-6.5c5.4-3.8,5.1-3.6,5.1-3.6L37.1,26.2z"/>
			<path class="st2" d="M29.9,31.9c-5.8,4.6-5.9,4.7-5.9,4.7c-0.1-7-0.1-6.7-0.1-6.7c6.7-4.8,6.3-4.5,6.3-4.5L29.9,31.9z"/>
			<path class="st2" d="M21.3,38.8c-7.3,5.8-7.3,5.8-7.3,5.8c-1-7-1-6.8-1-6.8c8.6-6.1,8-5.7,8-5.7L21.3,38.8z"/>
			<path class="st2" d="M19.9,4.2c0.5,11.9,0.5,11.5,0.5,11.5c-9.6,5-9.8,5.1-9.8,5.1C8.7,8.2,8.7,8.5,8.7,8.5L19.9,4.2z"/>
			<path class="st2" d="M20.5,19.9c0.4,9,0.3,8.7,0.4,8.7c-8.3,5.6-8.4,5.6-8.4,5.6c-1.4-9.3-1.3-9-1.3-9L20.5,19.9z"/>
		</g>
	</g>
	<g>
		<path d="M48.6,8.7l4.2-1c0,20.3-0.8,23.2,2,24.1c-0.6,1.2-1.7,1.8-3.3,1.8C47.6,33.6,48.6,30.9,48.6,8.7z"/>
		<path d="M59.1,33.3V18.8h-2.3v-3.4h6.5v17.9H59.1z M61.2,8.5c3.2,0,3.2,4.8,0,4.8C58,13.3,58,8.5,61.2,8.5z"/>
		<path d="M79.7,33.3c0-10.8,0.3-12.3-0.9-13.7c-1.4-1.7-4.9-1.2-6.5,0.8v12.9h-4.2V15.4h3l0.8,1.7c2.3-2.7,7.6-2.7,10.1-0.1
			c2.4,2.5,1.8,5.1,1.8,16.3H79.7z"/>
		<path d="M87.2,24.3c0-12.2,17.2-12.7,17.2,0C104.4,36.9,87.2,36.9,87.2,24.3z M91.5,24.3c0,7.1,5.5,6.9,7.4,4.4
			c1.7-2.3,2.2-10.2-3.1-10.2C92.8,18.5,91.5,21.3,91.5,24.3z"/>
		<path d="M119.3,33.3c0-1.8,0.5-0.9-1.8-0.1c-2.5,0.9-6.2,0.5-8.4-1.9c-2.8-3.1-3.1-9.8,0.3-13.5c2.8-3.1,7.1-3.2,9.9-1.8V8.7
			l4.2-1v25.6H119.3z M119.3,19.7c-2.2-1.8-5.2-1.2-6.7,0.5c-2,2.3-2.8,10,4,10c0.7,0,2.2-0.5,2.6-1.1V19.7z"/>
		<path d="M143.6,25.6h-12.8c0.3,5.5,7.2,5.3,9.5,3l1.6,3.2c-3.5,2.8-15.4,3.7-15.4-7.3C126.4,11.1,146.6,12.4,143.6,25.6z
			 M131,22.5h8.8c-0.3-2.6-1.7-3.9-4.3-3.9C133,18.6,131.5,19.9,131,22.5z"/>
	</g>
</g>
</svg>