<?xml version="1.0" encoding="utf-8"?>
<!-- Generator: Adobe Illustrator 23.0.3, SVG Export Plug-In . SVG Version: 6.00 Build 0)  -->
<svg version="1.1" id="Layer_1" xmlns="http://www.w3.org/2000/svg" xmlns:xlink="http://www.w3.org/1999/xlink" x="0px" y="0px"
	 viewBox="0 0 195.08 79.86" style="enable-background:new 0 0 195.08 79.86;" xml:space="preserve" width="130px">
<style type="text/css">
	.st0{fill:#333232;}
	.st1{fill:#174722;}
	.st2{fill:#0CB255;}
</style>
<g>
	<path class="st0" d="M79.74,25.47l4.88-1.17v23.52c0,2.58,0.77,4.11,2.3,4.61c-0.75,1.43-2.04,2.15-3.87,2.15
		c-2.21,0-3.32-1.54-3.32-4.61V25.47z"/>
	<path class="st0" d="M92.01,54.18V37.27h-2.68v-4.01h7.62v20.92H92.01z M94.53,25.16c0.78,0,1.45,0.28,2,0.83
		c0.55,0.55,0.83,1.22,0.83,2c0,0.78-0.28,1.45-0.83,2c-0.55,0.55-1.22,0.83-2,0.83c-0.78,0-1.45-0.28-2-0.83
		c-0.55-0.55-0.83-1.22-0.83-2c0-0.78,0.28-1.45,0.83-2C93.08,25.43,93.75,25.16,94.53,25.16"/>
	<path class="st0" d="M116.1,54.18V42.09c0-1.78-0.34-3.09-1.03-3.91c-0.68-0.82-1.8-1.23-3.35-1.23c-0.72,0-1.48,0.2-2.3,0.6
		c-0.81,0.4-1.45,0.9-1.9,1.5v15.12h-4.88V33.26h3.52l0.9,1.95c1.33-1.56,3.29-2.34,5.88-2.34c2.49,0,4.45,0.75,5.89,2.24
		c1.44,1.49,2.16,3.57,2.16,6.24v12.83H116.1z"/>
	<path class="st0" d="M124.89,43.67c0-3.19,0.92-5.79,2.76-7.79c1.84-2.01,4.28-3.01,7.3-3.01c3.18,0,5.65,0.96,7.4,2.89
		c1.76,1.93,2.64,4.57,2.64,7.91c0,3.33-0.9,5.99-2.69,7.95c-1.79,1.97-4.24,2.95-7.35,2.95c-3.18,0-5.65-0.99-7.41-2.98
		C125.77,49.61,124.89,46.97,124.89,43.67 M129.97,43.67c0,4.61,1.66,6.92,4.98,6.92c1.52,0,2.73-0.6,3.62-1.8
		c0.89-1.2,1.34-2.9,1.34-5.12c0-4.54-1.65-6.82-4.96-6.82c-1.52,0-2.73,0.6-3.63,1.8C130.42,39.85,129.97,41.52,129.97,43.67"/>
	<path class="st0" d="M162.35,54.18v-1.27c-0.4,0.44-1.09,0.83-2.05,1.16c-0.96,0.33-1.96,0.5-2.99,0.5c-2.92,0-5.21-0.92-6.88-2.77
		c-1.67-1.85-2.51-4.43-2.51-7.74c0-3.31,0.96-6,2.88-8.08c1.92-2.08,4.33-3.12,7.22-3.12c1.59,0,3.03,0.33,4.34,0.98v-8.38
		l4.88-1.17v29.89H162.35z M162.35,38.26c-1.04-0.83-2.13-1.25-3.26-1.25c-1.95,0-3.46,0.6-4.51,1.79c-1.06,1.19-1.58,2.9-1.58,5.13
		c0,4.35,2.1,6.52,6.29,6.52c0.47,0,1.04-0.14,1.73-0.42c0.68-0.28,1.13-0.56,1.34-0.85V38.26z"/>
	<path class="st0" d="M190.8,45.22h-14.95c0.09,1.67,0.67,2.96,1.72,3.89c1.05,0.92,2.48,1.39,4.26,1.39c2.23,0,3.92-0.58,5.08-1.74
		l1.9,3.73c-1.72,1.39-4.29,2.09-7.7,2.09c-3.19,0-5.71-0.93-7.57-2.8c-1.86-1.87-2.79-4.48-2.79-7.82c0-3.29,1.02-5.96,3.06-8.01
		c2.04-2.04,4.48-3.07,7.33-3.07c3.03,0,5.47,0.91,7.3,2.72c1.84,1.81,2.76,4.11,2.76,6.91C191.2,43.1,191.07,44.01,190.8,45.22
		 M176.03,41.54h10.27c-0.34-3.06-2.03-4.59-5.08-4.59C178.44,36.95,176.7,38.48,176.03,41.54"/>
	<polygon class="st1" points="55.81,52.41 56.74,41.74 46.5,35.36 46.29,45.78 	"/>
	<path class="st0" d="M55.81,52.86c-0.09,0-0.18-0.03-0.25-0.08l-9.53-6.63c-0.12-0.09-0.19-0.22-0.19-0.37l0.21-10.42
		c0-0.16,0.09-0.3,0.23-0.38c0.14-0.08,0.31-0.07,0.45,0.01l10.24,6.38c0.14,0.09,0.22,0.25,0.21,0.41l-0.92,10.67
		c-0.01,0.16-0.11,0.29-0.25,0.36C55.94,52.84,55.88,52.86,55.81,52.86 M46.74,45.55l8.7,6.06l0.83-9.64l-9.35-5.82L46.74,45.55z"/>
	<polygon class="st1" points="42.19,63.27 42.1,52.21 31.8,44.35 32.61,55.2 	"/>
	<path class="st0" d="M42.19,63.71c-0.1,0-0.21-0.03-0.29-0.1l-9.58-8.06c-0.09-0.08-0.15-0.19-0.16-0.31l-0.82-10.86
		c-0.01-0.17,0.08-0.34,0.23-0.42c0.15-0.08,0.34-0.07,0.48,0.04l10.3,7.86c0.11,0.08,0.17,0.21,0.17,0.35l0.09,11.06
		c0,0.17-0.1,0.33-0.25,0.4C42.32,63.7,42.26,63.71,42.19,63.71 M33.04,54.99l8.7,7.32l-0.08-9.88l-9.35-7.13L33.04,54.99z"/>
	<polygon class="st1" points="25.63,76.46 23.98,65.17 13.92,55.28 16.24,66.49 	"/>
	<path class="st0" d="M25.63,76.91c-0.12,0-0.24-0.05-0.32-0.14l-9.39-9.97c-0.06-0.06-0.09-0.13-0.11-0.21l-2.32-11.22
		c-0.04-0.19,0.05-0.39,0.22-0.48c0.17-0.09,0.38-0.06,0.52,0.07l10.06,9.9c0.07,0.07,0.11,0.16,0.13,0.25l1.65,11.29
		c0.03,0.19-0.07,0.38-0.25,0.47C25.76,76.89,25.7,76.91,25.63,76.91 M16.65,66.28l8.34,8.85l-1.43-9.75l-8.91-8.77L16.65,66.28z"/>
	<polygon class="st1" points="23.12,59.3 20.93,44.36 9.72,35.03 12.72,49.51 	"/>
	<path class="st0" d="M23.12,59.75c-0.11,0-0.22-0.04-0.3-0.12l-10.4-9.79c-0.07-0.06-0.11-0.14-0.13-0.23l-3-14.48
		c-0.04-0.18,0.04-0.37,0.21-0.47c0.16-0.1,0.37-0.08,0.51,0.04l11.21,9.34c0.08,0.07,0.14,0.17,0.15,0.28l2.19,14.94
		c0.03,0.19-0.07,0.37-0.23,0.46C23.26,59.73,23.19,59.75,23.12,59.75 M13.13,49.28l9.37,8.83L20.52,44.6l-10.1-8.42L13.13,49.28z"
		/>
	<polygon class="st1" points="19.89,37.23 16.89,16.78 4.32,8.96 8.3,28.2 	"/>
	<path class="st0" d="M19.89,37.67c-0.1,0-0.19-0.03-0.27-0.09L8.03,28.55c-0.08-0.07-0.14-0.16-0.16-0.26L3.89,9.05
		C3.85,8.88,3.92,8.7,4.07,8.6c0.14-0.1,0.34-0.11,0.49-0.01l12.57,7.82c0.11,0.07,0.18,0.18,0.21,0.31l3,20.45
		c0.03,0.18-0.06,0.36-0.22,0.45C20.04,37.65,19.97,37.67,19.89,37.67 M8.71,27.95l10.58,8.25l-2.81-19.16L4.97,9.88L8.71,27.95z"/>
	<polygon points="56.74,41.74 65.12,35.75 55.02,30.15 46.5,35.36 	"/>
	<path class="st0" d="M56.74,42.18c-0.08,0-0.16-0.02-0.23-0.07l-10.24-6.38c-0.13-0.08-0.21-0.22-0.21-0.38
		c0-0.15,0.08-0.3,0.21-0.38l8.52-5.21c0.14-0.09,0.31-0.09,0.45-0.01l10.1,5.6c0.13,0.07,0.22,0.21,0.23,0.36
		c0.01,0.15-0.06,0.3-0.18,0.39L57,42.1C56.92,42.16,56.83,42.18,56.74,42.18 M47.34,35.37l9.38,5.84l7.57-5.41l-9.26-5.13
		L47.34,35.37z"/>
	<polygon points="42.1,52.21 52.53,44.75 42.25,37.96 31.8,44.35 	"/>
	<path class="st0" d="M42.1,52.65c-0.1,0-0.19-0.03-0.27-0.09l-10.3-7.86c-0.12-0.09-0.18-0.23-0.17-0.38
		c0.01-0.14,0.09-0.28,0.21-0.35l10.45-6.39c0.15-0.09,0.33-0.09,0.48,0.01l10.28,6.79c0.12,0.08,0.2,0.22,0.2,0.36
		c0,0.15-0.07,0.29-0.19,0.37l-10.43,7.46C42.28,52.63,42.19,52.65,42.1,52.65 M32.58,44.39l9.53,7.27l9.64-6.9l-9.51-6.28
		L32.58,44.39z"/>
	<polygon points="26.96,47.3 21.82,50.45 23.12,59.3 16.9,53.45 13.92,55.28 23.98,65.17 37.23,55.69 	"/>
	<path class="st0" d="M23.98,65.62c-0.11,0-0.22-0.04-0.31-0.13l-10.06-9.9c-0.1-0.1-0.15-0.23-0.13-0.37
		c0.02-0.14,0.09-0.26,0.21-0.33l2.99-1.83c0.17-0.1,0.39-0.08,0.53,0.05l5.29,4.98l-1.11-7.59c-0.02-0.18,0.06-0.35,0.21-0.44
		l5.14-3.15c0.16-0.1,0.36-0.08,0.51,0.04l10.27,8.38c0.11,0.09,0.17,0.22,0.16,0.36c0,0.14-0.07,0.27-0.19,0.35l-13.26,9.49
		C24.16,65.59,24.07,65.62,23.98,65.62 M14.63,55.36l9.39,9.24l12.48-8.93l-9.58-7.82l-4.62,2.83l1.25,8.56
		c0.03,0.19-0.07,0.37-0.23,0.46c-0.17,0.09-0.37,0.06-0.51-0.07l-5.97-5.62L14.63,55.36z"/>
	<polygon points="24.84,27.83 18.92,30.64 19.89,37.23 14.28,32.86 9.72,35.03 20.93,44.37 36.37,35.58 	"/>
	<path class="st0" d="M20.93,44.81c-0.1,0-0.2-0.03-0.28-0.1L9.44,35.37c-0.11-0.1-0.17-0.25-0.15-0.4
		c0.02-0.15,0.11-0.28,0.25-0.35l4.56-2.17c0.15-0.07,0.33-0.05,0.46,0.05l4.74,3.69l-0.81-5.49c-0.03-0.19,0.07-0.38,0.25-0.46
		l5.92-2.82c0.14-0.07,0.31-0.06,0.44,0.03l11.54,7.75c0.13,0.09,0.2,0.23,0.2,0.38c-0.01,0.15-0.09,0.29-0.22,0.37l-15.44,8.79
		C21.08,44.79,21.01,44.81,20.93,44.81 M10.54,35.13l10.44,8.7l14.55-8.28L24.8,28.34l-5.39,2.57l0.92,6.26
		c0.03,0.18-0.06,0.36-0.22,0.45c-0.16,0.09-0.35,0.08-0.5-0.03l-5.39-4.2L10.54,35.13z"/>
	<polygon points="16.89,16.77 35.27,9.71 22.18,3.4 4.32,8.96 	"/>
	<path class="st0" d="M16.89,17.22c-0.08,0-0.16-0.02-0.23-0.07L4.09,9.34C3.94,9.24,3.86,9.07,3.88,8.9
		C3.9,8.73,4.02,8.59,4.19,8.53l17.86-5.56c0.11-0.03,0.22-0.02,0.32,0.02l13.09,6.32c0.16,0.08,0.26,0.24,0.25,0.42
		c-0.01,0.18-0.12,0.33-0.28,0.4l-18.38,7.06C17,17.21,16.95,17.22,16.89,17.22 M5.38,9.09l11.56,7.19l17.21-6.61l-12.01-5.8
		L5.38,9.09z"/>
	<polygon class="st2" points="63.71,46.12 55.81,52.41 56.74,41.74 65.12,35.75 	"/>
	<path class="st0" d="M55.81,52.86c-0.07,0-0.14-0.02-0.21-0.05c-0.16-0.08-0.25-0.25-0.23-0.43l0.92-10.67
		c0.01-0.13,0.08-0.25,0.18-0.32l8.38-6c0.14-0.1,0.33-0.11,0.49-0.02c0.15,0.09,0.23,0.26,0.21,0.44l-1.4,10.37
		c-0.01,0.11-0.07,0.22-0.16,0.29l-7.9,6.3C56.01,52.82,55.91,52.86,55.81,52.86 M57.16,41.98l-0.82,9.44l6.95-5.54l1.24-9.17
		L57.16,41.98z"/>
	<polygon class="st2" points="51.88,55.55 42.19,63.27 42.1,52.21 52.53,44.75 	"/>
	<path class="st0" d="M42.19,63.71c-0.06,0-0.13-0.01-0.19-0.04c-0.15-0.07-0.25-0.23-0.25-0.4l-0.09-11.06
		c0-0.14,0.07-0.28,0.19-0.36l10.43-7.46c0.14-0.1,0.32-0.11,0.47-0.03c0.15,0.08,0.24,0.24,0.23,0.41l-0.66,10.8
		c-0.01,0.13-0.07,0.24-0.17,0.32l-9.68,7.72C42.39,63.68,42.29,63.71,42.19,63.71 M42.55,52.44l0.08,9.92l8.82-7.03l0.59-9.67
		L42.55,52.44z"/>
	<polygon class="st2" points="37.71,66.84 25.63,76.46 23.98,65.17 37.23,55.69 	"/>
	<path class="st0" d="M25.63,76.91c-0.06,0-0.11-0.01-0.16-0.03c-0.15-0.06-0.25-0.19-0.28-0.35l-1.65-11.29
		c-0.02-0.16,0.04-0.33,0.18-0.42l13.26-9.49c0.13-0.1,0.31-0.11,0.45-0.04c0.15,0.07,0.24,0.22,0.25,0.38l0.48,11.15
		c0.01,0.14-0.06,0.28-0.17,0.37l-12.08,9.62C25.83,76.87,25.73,76.91,25.63,76.91 M24.45,65.38l1.5,10.26l11.3-9l-0.43-10.11
		L24.45,65.38z"/>
	<polygon class="st2" points="35.27,9.71 36.08,28.8 19.89,37.23 16.89,16.77 	"/>
	<path class="st0" d="M19.89,37.67c-0.07,0-0.14-0.02-0.2-0.05c-0.13-0.07-0.22-0.19-0.24-0.33l-3-20.45
		c-0.03-0.2,0.09-0.4,0.28-0.48L35.11,9.3c0.13-0.05,0.28-0.04,0.4,0.04c0.12,0.08,0.19,0.21,0.2,0.35l0.82,19.09
		c0.01,0.17-0.09,0.33-0.24,0.41l-16.2,8.43C20.03,37.66,19.96,37.67,19.89,37.67 M17.38,17.06l2.85,19.49l15.39-8.01l-0.78-18.19
		L17.38,17.06z"/>
	<polygon class="st2" points="36.37,35.58 36.99,49.96 23.12,59.3 20.93,44.37 	"/>
	<path class="st0" d="M23.12,59.75c-0.06,0-0.12-0.01-0.18-0.04c-0.14-0.06-0.24-0.19-0.26-0.34l-2.19-14.94
		c-0.03-0.18,0.06-0.36,0.22-0.45l15.44-8.79c0.13-0.08,0.3-0.08,0.43,0c0.14,0.08,0.22,0.21,0.23,0.37l0.61,14.38
		c0.01,0.15-0.07,0.3-0.19,0.39l-13.87,9.34C23.29,59.72,23.2,59.75,23.12,59.75 M21.41,44.6l2.04,13.94l13.08-8.81l-0.57-13.41
		L21.41,44.6z"/>
</g>
</svg>
