<svg xmlns="http://www.w3.org/2000/svg" xmlns:xlink="http://www.w3.org/1999/xlink" viewBox="0 0 738.9 228.9"><defs><clipPath id="a"><path d="M190.5,101.5v-.2c0-.1,0-.1-.1-.2a.1.1,0,0,0-.1-.1c0-.1-.1-.1-.1-.2l-.1-.1-.2-.2-.1-.1L158.6,83.1a1.708,1.708,0,0,0-1.4,0L130.9,99.2l-.1.1-.1.1-.1.1-.1.1c0,.1-.1.1-.1.2a.1.1,0,0,1-.1.1v.3l-.3,14-10.7-7.1a1.36,1.36,0,0,0-1.5,0l-15.4,9.4-.7-15.7v-.3a.1.1,0,0,0-.1-.1c0-.1,0-.1-.1-.2l-.1-.1-.1-.1-.1-.1-.1-.1L85.1,89l15-7.8a1.146,1.146,0,0,0,.7-1.3l-2.5-59v-.3c0-.1-.1-.2-.1-.3v-.1c-.1-.1-.1-.2-.2-.2a.1.1,0,0,1-.1-.1l-.1-.1a.1.1,0,0,1-.1-.1L57.2.2a1.183,1.183,0,0,0-1-.1L1,17.3H.9c-.1,0-.2.1-.3.1a.1.1,0,0,0-.1.1l-.2.2c0,.1-.1.1-.1.2s-.1.1-.1.2,0,.1-.1.2v.5L12.3,78.3a1.374,1.374,0,0,0,.5.8l16.7,13-12.2,6h-.2l-.1.1c-.1,0-.1.1-.2.2l-.1.1a.31.31,0,0,0-.1.2v.1c0,.1-.1.2-.1.4v.4l9.3,44.8a1.612,1.612,0,0,0,.4.7l11.6,11-7.7,4.7c-.1.1-.2.1-.3.2l-.1.1c-.1.1-.1.2-.2.3v.1c-.1.1-.1.2-.1.4v.4L36.6,197c.1.2.2.5.3.7l29,30.8.1.1h.1c.1.1.2.1.3.2a.9.9,0,0,0,.5.1.6.6,0,0,0,.4-.1h.2a663442882554.9,663442882554.9,0,0,1,.2-.2L105,198.8a1.606,1.606,0,0,0,.5-1.1l-.9-20.4,12.5,10.5h.1c.1.1.1.1.2.1h.2c.1,0,.3.1.4.1a.6.6,0,0,0,.4-.1h.2c.1,0,.1-.1.2-.1h.1l29.9-23.9a1.231,1.231,0,0,0,.5-1l.9-15,9.1,6.3h.1l.1.1c.1,0,.1,0,.2.1h.1c.1,0,.2.1.4.1a.6.6,0,0,0,.4-.1h.2c.1,0,.1-.1.2-.1h.1l24.4-19.5a1.05,1.05,0,0,0,.5-.9l4.3-32.1v-.1c.2-.1.2-.1.2-.2Z" style="fill:none"></path></clipPath></defs><title>PA Produce Logo - Artboard 1</title><path d="M245.5,43.3l21.6-5.2V142.2q0,17.1,10.2,20.4c-3.3,6.3-9,9.5-17.1,9.5q-14.7,0-14.7-20.4V43.3Z" style="fill:#231f20"></path><path d="M299.8,170.5V95.6H288V77.9h33.7v92.6ZM310.9,42a12.633,12.633,0,0,1,12.6,12.6A12.587,12.587,0,0,1,302,63.5a11.852,11.852,0,0,1-3.7-8.9,12.007,12.007,0,0,1,3.7-8.9A12.165,12.165,0,0,1,310.9,42Z" style="fill:#231f20"></path><path d="M406.4,170.5V117c0-7.9-1.5-13.7-4.5-17.3s-8-5.4-14.8-5.4a25.873,25.873,0,0,0-18.6,9.4v66.9H346.9V78h15.6l4,8.6c5.9-6.9,14.6-10.4,26-10.4q16.5,0,26.1,9.9t9.6,27.6v56.8Z" style="fill:#231f20"></path><path d="M445.3,123.9c0-14.1,4.1-25.6,12.2-34.5,8.2-8.9,18.9-13.3,32.3-13.3,14.1,0,25,4.3,32.8,12.8s11.7,20.2,11.7,35-4,26.5-11.9,35.2-18.8,13.1-32.6,13.1c-14.1,0-25-4.4-32.8-13.2s-11.7-20.5-11.7-35.1Zm22.5,0c0,20.4,7.3,30.6,22.1,30.6a18.923,18.923,0,0,0,16-8c3.9-5.3,5.9-12.9,5.9-22.7,0-20.1-7.3-30.2-22-30.2a19.229,19.229,0,0,0-16.1,8c-3.9,5.4-5.9,12.8-5.9,22.3Z" style="fill:#231f20"></path><path d="M611.2,170.5v-5.6c-1.8,2-4.8,3.7-9.1,5.1a39.751,39.751,0,0,1-13.2,2.2c-12.9,0-23.1-4.1-30.5-12.3s-11.1-19.6-11.1-34.2,4.3-26.6,12.8-35.8S579.3,76.1,592,76.1a42.3,42.3,0,0,1,19.2,4.3V43.3l21.6-5.2V170.4l-21.6.1Zm0-70.5c-4.6-3.7-9.4-5.5-14.4-5.5-8.6,0-15.3,2.6-20,7.9s-7,12.8-7,22.7c0,19.3,9.3,28.9,27.9,28.9a20.4,20.4,0,0,0,7.7-1.9c3-1.2,5-2.5,5.9-3.8V100Z" style="fill:#231f20"></path><path d="M737.1,130.8H670.9c.4,7.4,2.9,13.1,7.6,17.2s11,6.1,18.9,6.1c9.9,0,17.4-2.6,22.5-7.7l8.4,16.5c-7.6,6.2-19,9.3-34.1,9.3-14.1,0-25.3-4.1-33.5-12.4s-12.3-19.8-12.3-34.6c0-14.6,4.5-26.4,13.5-35.5a43.961,43.961,0,0,1,32.5-13.6c13.4,0,24.2,4,32.3,12s12.2,18.2,12.2,30.6a61.4,61.4,0,0,1-1.8,12.1Zm-65.4-16.3h45.5c-1.5-13.6-9-20.3-22.5-20.3C682.4,94.2,674.7,101,671.7,114.5Z" style="fill:#231f20"></path><path d="M190.5,101.5v-.2c0-.1,0-.1-.1-.2a.1.1,0,0,0-.1-.1c0-.1-.1-.1-.1-.2l-.1-.1-.2-.2-.1-.1L158.6,83.1a1.708,1.708,0,0,0-1.4,0L130.9,99.2l-.1.1-.1.1-.1.1-.1.1c0,.1-.1.1-.1.2a.1.1,0,0,1-.1.1v.3l-.3,14-10.7-7.1a1.36,1.36,0,0,0-1.5,0l-15.4,9.4-.7-15.7v-.3a.1.1,0,0,0-.1-.1c0-.1,0-.1-.1-.2l-.1-.1-.1-.1-.1-.1-.1-.1L85.1,89l15-7.8a1.146,1.146,0,0,0,.7-1.3l-2.5-59v-.3c0-.1-.1-.2-.1-.3v-.1c-.1-.1-.1-.2-.2-.2a.1.1,0,0,1-.1-.1l-.1-.1a.1.1,0,0,1-.1-.1L57.2.2a1.183,1.183,0,0,0-1-.1L1,17.3H.9c-.1,0-.2.1-.3.1a.1.1,0,0,0-.1.1l-.2.2c0,.1-.1.1-.1.2s-.1.1-.1.2,0,.1-.1.2v.5L12.3,78.3a1.374,1.374,0,0,0,.5.8l16.7,13-12.2,6h-.2l-.1.1c-.1,0-.1.1-.2.2l-.1.1a.31.31,0,0,0-.1.2v.1c0,.1-.1.2-.1.4v.4l9.3,44.8a1.612,1.612,0,0,0,.4.7l11.6,11-7.7,4.7c-.1.1-.2.1-.3.2l-.1.1c-.1.1-.1.2-.2.3v.1c-.1.1-.1.2-.1.4v.4L36.6,197c.1.2.2.5.3.7l29,30.8.1.1h.1c.1.1.2.1.3.2a.9.9,0,0,0,.5.1.6.6,0,0,0,.4-.1h.2a663442882554.9,663442882554.9,0,0,1,.2-.2L105,198.8a1.606,1.606,0,0,0,.5-1.1l-.9-20.4,12.5,10.5h.1c.1.1.1.1.2.1h.2c.1,0,.3.1.4.1a.6.6,0,0,0,.4-.1h.2c.1,0,.1-.1.2-.1h.1l29.9-23.9a1.231,1.231,0,0,0,.5-1l.9-15,9.1,6.3h.1l.1.1c.1,0,.1,0,.2.1h.1c.1,0,.2.1.4.1a.6.6,0,0,0,.4-.1h.2c.1,0,.1-.1.2-.1h.1l24.4-19.5a1.05,1.05,0,0,0,.5-.9l4.3-32.1v-.1c.2-.1.2-.1.2-.2Z"></path><g style="clip-path:url(#a)"><path d="M190.7,100.7l-4.6,33.7-25.8,20.5,2.8-33Z" style="fill:#00a75d"></path></g><g style="clip-path:url(#a)"><path d="M118.4,153.8l-.1,34.7,31.4-25,1.9-34Z" style="fill:#00a75d"></path></g><g style="clip-path:url(#a)"><path d="M104.3,163.2,62.5,193.9l4.6,35.6,38.8-30.9Z" style="fill:#00a75d"></path></g><g style="clip-path:url(#a)"><path d="M103.6,146.2,101.8,100,53.1,129.5l6.7,46.3Z" style="fill:#00a75d"></path></g><g style="clip-path:url(#a)"><path d="M98.2,20.8,40.6,44.2l9.5,64.3L85.3,89l.1.4,15.9-8V80.1Z" style="fill:#00a75d"></path></g><g style="clip-path:url(#a)"><path d="M163.1,121.9l-2.8,32.9-9.8-6.9,1.1-18.4v-.4c0-.1-.1-.2-.1-.3-.1-.1-.1-.2-.2-.3h-.1c-.1-.1-.1-.1-.2-.1l-21.1-13.9.3-14.2Zm-44.7,31.9-14.9-10.7.1,2.3a1.425,1.425,0,0,1-.6,1.2l-9.9,6.7,10.8,8.8.1.1.2.2a.1.1,0,0,0,.1.1c0,.1.1.1.1.2v.4l.6,14,13.4,11.2ZM29,161.3,36.5,197l30.7,32.7-4.7-35.8Zm30.8,14.5-6.7-46.3L16.6,99.6l9,45.4Zm-9.7-67.3L40.6,44.2-.7,18.1,12.1,78.9Z" style="fill:#536657"></path></g></svg>