<?xml version="1.0" encoding="utf-8"?>
<svg version="1.1" id="Layer_1" xmlns="http://www.w3.org/2000/svg" xmlns:xlink="http://www.w3.org/1999/xlink" x="0px" y="0px"
	 viewBox="0 0 649.1 229" style="enable-background:new 0 0 649.1 229;" xml:space="preserve" width="135px" height="42px">
<style type="text/css">
	.st0{fill:#070A0B;}
	.st1{fill:#008544;}
	.st2{fill:#00AD4F;}
</style>
<g>
	<path class="st0" d="M258.8,53.3l17.1-4.1v82.4c0,9.1,2.6,14.4,7.9,16.2c-2.6,5-7.1,7.7-13.5,7.7c-7.7,0-11.8-5.3-11.8-16.2V53.3
		H258.8z"/>
	<path class="st0" d="M310.6,52.1c2.6,0,5,0.9,7.1,2.9c2.1,2.1,2.9,4.4,2.9,7.1c0,2.6-0.9,5-2.9,7.1c-2.1,2.1-4.4,2.9-7.1,2.9
		c-2.6,0-5-0.9-7.1-2.9c-2.1-2.1-2.9-4.4-2.9-7.1c0-2.6,0.9-5,2.9-7.1C305.6,53,307.9,52.1,310.6,52.1 M301.8,153.9V94.5h-9.4V80.4
		h26.8v73.6H301.8z"/>
	<path class="st0" d="M386.2,153.9v-42.4c0-6.2-1.2-10.9-3.5-13.5c-2.4-2.9-6.2-4.4-11.8-4.4c-2.6,0-5.3,0.6-7.9,2.1
		c-2.9,1.5-5,3.2-6.8,5.3v53h-17.1V80.6h12.4l3.2,6.8c4.7-5.6,11.5-8.2,20.6-8.2c8.8,0,15.6,2.6,20.6,7.9c5,5.3,7.7,12.7,7.7,21.8
		v45H386.2z"/>
	<path class="st0" d="M434.8,117.1c0,16.2,5.9,24.1,17.4,24.1c5.3,0,9.4-2.1,12.7-6.2c3.2-4.1,4.7-10.3,4.7-18
		c0-15.9-5.9-23.8-17.4-23.8c-5.3,0-9.7,2.1-12.7,6.2C436.3,103.6,434.8,109.5,434.8,117.1 M416.8,117.1c0-11.2,3.2-20.3,9.7-27.4
		c6.5-7.1,15-10.6,25.6-10.6c11.2,0,19.7,3.2,25.9,10c6.2,6.8,9.1,15.9,9.1,27.7s-3.2,20.9-9.4,28c-6.2,6.8-14.7,10.3-25.9,10.3
		c-11.2,0-19.7-3.5-25.9-10.3C420.1,137.7,416.8,128.6,416.8,117.1"/>
	<path class="st0" d="M548.1,98c-3.5-2.9-7.4-4.4-11.5-4.4c-6.8,0-12.1,2.1-15.9,6.2c-3.8,4.1-5.6,10.3-5.6,18
		c0,15.3,7.4,23,22.1,23c1.8,0,3.5-0.6,6.2-1.5c2.4-0.9,3.8-2.1,4.7-2.9V98z M548.1,153.9v-4.4c-1.5,1.5-3.8,2.9-7.1,4.1
		c-3.2,1.2-6.8,1.8-10.6,1.8c-10.3,0-18.2-3.2-24.1-9.7c-5.9-6.5-8.8-15.6-8.8-27.1c0-11.5,3.2-20.9,10-28.3
		c6.8-7.4,15-10.9,25.3-10.9c5.6,0,10.6,1.2,15.3,3.5V53.6l17.1-4.1v104.5H548.1z"/>
	<path class="st0" d="M596.1,109.5H632c-1.2-10.6-7.1-16.2-17.7-16.2C604.6,93.6,598.4,98.9,596.1,109.5 M647.9,122.4h-52.4
		c0.3,5.9,2.4,10.3,5.9,13.5c3.8,3.2,8.5,5,15,5c7.7,0,13.8-2.1,17.7-6.2l6.8,13c-5.9,5-15,7.4-27.1,7.4c-11.2,0-20-3.2-26.5-9.7
		c-6.5-6.5-9.7-15.6-9.7-27.4c0-11.5,3.5-20.9,10.6-28c7.1-7.1,15.6-10.6,25.6-10.6c10.6,0,19.1,3.2,25.6,9.4
		c6.5,6.5,9.7,14.4,9.7,24.1C649.4,115.1,648.8,118,647.9,122.4"/>
	<polygon class="st1" points="50.3,92.4 40.4,23.8 0,0 13.2,63.3 	"/>
	<polygon class="st1" points="61.6,168.6 54.5,120.4 19.2,91.8 28.6,137.7 	"/>
	<polygon class="st1" points="31,162.5 38,196.3 70.4,229 65.1,193.1 	"/>
	<path class="st1" d="M128.7,147.8l-18.2-11.5v2.6c0,0.6-0.3,1.2-0.6,1.5L98.7,148l12.4,10l0.3,0.3v0.3v0.3l0.6,11.8l16.8,12.8
		V147.8z"/>
	<polygon class="st1" points="179.9,111.3 175.4,145.6 164,138 165.2,121 165.2,120.7 165.2,120.4 164.9,120.1 164.6,119.8 
		143.7,106 144,90.9 	"/>
	<path class="st2" d="M104.3,63.9l-2.6-63.6L40.4,23.8l10,68.3L104.3,63.9z M107.5,138.3l-2.1-47.1l-50.9,29.1l7.1,48.9L107.5,138.3
		z M108.7,161.9l-43.6,31.2l5.3,35.9l39.4-31.5L108.7,161.9z M128.7,147.8v35.8l31.2-25.8l2.1-33.8L128.7,147.8z M205.5,92.7
		l-4.4,32.1l-25.7,20.8l4.5-34.4L205.5,92.7z"/>
</g>
</svg>
